<?xml version="1.0" encoding="UTF-8"?><svg xmlns="http://www.w3.org/2000/svg" width="16" height="16"><path d="M7.99268 1.43018a.4688.4688 0 00-.46143.47607v3.75H1.4375c-.51938 0-.9375.41812-.9375.9375v6.09375c0 .51938.41813.9375.9375.9375h13.125c.51938 0 .9375-.41813.9375-.9375V6.59375c0-.51938-.41813-.9375-.9375-.9375H8.46875v-3.75a.4688.4688 0 00-.47607-.47607zM1.78906 7.0625h1.17188a.11693.11693 0 01.11719.11719v1.17187a.11693.11693 0 01-.1172.11719H1.78907a.11693.11693 0 01-.11719-.11719V7.1797a.11693.11693 0 01.1172-.11719zm1.875 0h1.17188a.11693.11693 0 01.11719.11719v1.17187a.11693.11693 0 01-.1172.11719H3.66407a.11693.11693 0 01-.11719-.11719V7.1797a.11693.11693 0 01.1172-.11719zm1.875 0h1.17188a.11693.11693 0 01.11719.11719v1.17187a.11693.11693 0 01-.1172.11719H5.53907a.11693.11693 0 01-.11719-.11719V7.1797a.11693.11693 0 01.1172-.11719zm1.875 0h1.17188a.11693.11693 0 01.11718.11719v1.17187a.11693.11693 0 01-.11718.11719H7.41406a.11693.11693 0 01-.11719-.11719V7.1797a.11693.11693 0 01.1172-.11719zm1.875 0h1.17188a.11693.11693 0 01.11718.11719v1.17187a.11693.11693 0 01-.11718.11719H9.28906a.11693.11693 0 01-.11718-.11719V7.1797a.11693.11693 0 01.11718-.11719zm1.875 0h1.17188a.11693.11693 0 01.11718.11719v1.17187a.11693.11693 0 01-.11718.11719h-1.17188a.11693.11693 0 01-.11718-.11719V7.1797a.11693.11693 0 01.11718-.11719zm1.875 0h1.17188a.11693.11693 0 01.11718.11719v1.17187a.11693.11693 0 01-.11718.11719h-1.17188a.11693.11693 0 01-.11718-.11719V7.1797a.11693.11693 0 01.11718-.11719zm-11.25 1.875h2.10938a.11693.11693 0 01.11719.11719v1.17187a.11693.11693 0 01-.1172.11719H1.78907a.11693.11693 0 01-.11719-.11719V9.0547a.11693.11693 0 01.1172-.11719zm2.8125 0h1.17188a.11693.11693 0 01.11719.11719v1.17187a.11693.11693 0 01-.1172.11719H4.60157a.11693.11693 0 01-.11719-.11719V9.0547a.11693.11693 0 01.1172-.11719zm1.875 0h1.17188a.11693.11693 0 01.11719.11719v1.17187a.11693.11693 0 01-.1172.11719H6.47657a.11693.11693 0 01-.11719-.11719V9.0547a.11693.11693 0 01.1172-.11719zm1.875 0h1.17188a.11693.11693 0 01.11718.11719v1.17187a.11693.11693 0 01-.11718.11719H8.35156a.11693.11693 0 01-.11718-.11719V9.0547a.11693.11693 0 01.11718-.11719zm1.875 0h1.17188a.11693.11693 0 01.11718.11719v1.17187a.11694.11694 0 01-.11718.11719h-1.17188a.11694.11694 0 01-.11718-.11719V9.0547a.11693.11693 0 01.11718-.11719zm1.875 0h2.10938a.11693.11693 0 01.11718.11719v1.17187a.11694.11694 0 01-.11718.11719h-2.10938a.11694.11694 0 01-.11718-.11719V9.0547a.11693.11693 0 01.11718-.11719zm-10.3125 1.875h1.17188a.11693.11693 0 01.11719.11719v1.17187a.11693.11693 0 01-.1172.11719H1.78907a.11693.11693 0 01-.11719-.11719V10.9297a.11693.11693 0 01.1172-.11719zm1.875 0h1.17188a.11693.11693 0 01.11719.11719v1.17187a.11693.11693 0 01-.1172.11719H3.66407a.11693.11693 0 01-.11719-.11719V10.9297a.11693.11693 0 01.1172-.11719zm1.875 0h4.92188a.11693.11693 0 01.11718.11719v1.17187a.11694.11694 0 01-.11718.11719H5.53906a.11693.11693 0 01-.11719-.11719V10.9297a.11693.11693 0 01.1172-.11719zm5.625 0h1.17188a.11693.11693 0 01.11718.11719v1.17187a.11694.11694 0 01-.11718.11719h-1.17188a.11694.11694 0 01-.11719-.11719V10.9297a.11693.11693 0 01.1172-.11719zm1.875 0h1.17188a.11693.11693 0 01.11718.11719v1.17187a.11694.11694 0 01-.11718.11719h-1.17188a.11694.11694 0 01-.11719-.11719V10.9297a.11693.11693 0 01.1172-.11719z" fill="#333"/></svg>